<svg version="1.1" id="Layer_1" xmlns="http://www.w3.org/2000/svg" xmlns:xlink="http://www.w3.org/1999/xlink" x="0px" y="0px"
	 width="100%" viewBox="0 0 512 512" enable-background="new 0 0 512 512" xml:space="preserve">
<path fill="#030303" opacity="1.000000" stroke="none" 
	d="
M513.000000,258.000000 
	C513.000000,342.963898 513.000000,427.927765 513.000000,512.945801 
	C342.441956,512.945801 171.883896,512.945801 1.000000,512.945801 
	C1.000000,428.311584 1.000000,343.622772 1.466046,258.411041 
	C38.175835,257.877808 74.419609,257.883087 110.663246,257.817230 
	C112.761803,257.813416 114.859306,257.231720 117.215736,257.181549 
	C129.861252,286.048889 142.285828,314.637512 154.572998,343.285095 
	C155.707809,345.930939 156.967758,347.012115 159.974930,346.973755 
	C171.449966,346.827209 182.935242,346.805786 194.403778,347.158203 
	C199.069611,347.301575 201.269440,345.684357 203.022598,341.311646 
	C214.314697,313.147217 225.932556,285.113373 237.813629,257.158905 
	C245.528458,257.448700 252.873123,257.616302 260.078003,258.180908 
	C250.893341,287.817291 241.848511,317.056671 232.682800,346.686768 
	C246.415726,346.686768 259.515778,346.686768 273.015991,346.686768 
	C276.231476,336.121429 279.437866,325.487701 282.704895,314.872650 
	C288.656342,295.535736 294.643768,276.209839 301.022614,257.050232 
	C307.031036,257.390442 312.633057,257.559814 318.559448,257.854584 
	C319.308411,258.478363 319.793793,258.937073 320.148804,259.480835 
	C338.576263,287.706909 356.977997,315.949799 375.461670,344.138947 
	C376.231628,345.313171 377.747864,346.772095 378.930573,346.784790 
	C395.148987,346.959290 411.369904,346.902466 428.452789,346.902466 
	C425.047607,341.820404 422.162079,337.432129 419.195190,333.099579 
	C402.023682,308.023712 384.832947,282.960968 368.138794,257.863892 
	C371.959381,257.840240 375.289856,257.848755 378.620361,257.852448 
	C423.413574,257.902039 468.206787,257.950928 513.000000,258.000000 
z"/>
<path fill="#007532" opacity="1.000000" stroke="none" 
	d="
M260.217804,257.783875 
	C252.873123,257.616302 245.528458,257.448700 237.821716,256.813629 
	C250.178528,225.486176 262.897430,194.626205 275.885864,163.112244 
	C262.473999,163.112244 250.168503,163.243576 237.868896,163.032364 
	C234.172165,162.968872 232.418533,164.071625 231.015442,167.667450 
	C219.373566,197.503525 207.469482,227.237289 195.549255,257.190308 
	C195.327927,257.632538 195.167496,257.862366 194.986420,258.030914 
	C195.000259,257.993713 195.075134,258.020020 194.620728,257.956055 
	C187.117447,257.662445 180.068909,257.422333 173.019562,257.207916 
	C169.961411,257.114868 166.901642,257.074768 163.594894,256.762085 
	C150.901093,225.376434 138.455017,194.239304 126.048691,163.201645 
	C109.725098,163.201645 93.773048,163.201645 77.502380,163.201645 
	C77.885178,164.527115 78.086273,165.659775 78.528229,166.689011 
	C86.654686,185.614532 94.851189,204.510040 102.943489,223.450089 
	C107.695374,234.571930 112.291245,245.760437 116.957298,256.918945 
	C114.859306,257.231720 112.761803,257.813416 110.663246,257.817230 
	C74.419609,257.883087 38.175835,257.877808 1.466046,257.944061 
	C1.000000,172.369858 1.000000,86.739723 1.000000,1.054794 
	C171.557358,1.054794 342.114746,1.054794 513.000000,1.054794 
	C513.000000,86.353951 513.000000,171.708313 513.000000,257.531342 
	C468.206787,257.950928 423.413574,257.902039 378.620361,257.852448 
	C375.289856,257.848755 371.959381,257.840240 367.862549,257.730835 
	C364.409210,253.685669 361.722168,249.743652 358.501709,245.019058 
	C385.820068,217.687759 412.958282,190.536713 440.010284,163.471878 
	C425.630096,163.471878 410.876343,163.394379 396.125763,163.573853 
	C394.360840,163.595306 392.199707,164.592163 390.918365,165.847488 
	C367.123413,189.159271 343.413483,212.558136 319.749084,236.002640 
	C316.821655,238.902863 314.254944,242.167145 311.839630,244.902054 
	C314.134552,249.504898 316.184814,253.617050 318.235077,257.729187 
	C312.633057,257.559814 307.031036,257.390442 300.999481,256.645691 
	C309.975922,225.327362 319.381897,194.584442 328.921204,163.405731 
	C315.128113,163.405731 302.368683,163.405731 290.184479,163.405731 
	C280.089386,195.199585 270.153595,226.491730 260.217804,257.783875 
z"/>
<path fill="#FDFDFD" opacity="1.000000" stroke="none" 
	d="
M195.644653,257.001984 
	C207.469482,227.237289 219.373566,197.503525 231.015442,167.667450 
	C232.418533,164.071625 234.172165,162.968872 237.868896,163.032364 
	C250.168503,163.243576 262.473999,163.112244 275.885864,163.112244 
	C262.897430,194.626205 250.178528,225.486176 237.451569,256.691406 
	C225.932556,285.113373 214.314697,313.147217 203.022598,341.311646 
	C201.269440,345.684357 199.069611,347.301575 194.403778,347.158203 
	C182.935242,346.805786 171.449966,346.827209 159.974930,346.973755 
	C156.967758,347.012115 155.707809,345.930939 154.572998,343.285095 
	C142.285828,314.637512 129.861252,286.048889 117.215736,257.181549 
	C112.291245,245.760437 107.695374,234.571930 102.943489,223.450089 
	C94.851189,204.510040 86.654686,185.614532 78.528229,166.689011 
	C78.086273,165.659775 77.885178,164.527115 77.502380,163.201645 
	C93.773048,163.201645 109.725098,163.201645 126.048691,163.201645 
	C138.455017,194.239304 150.901093,225.376434 163.617416,257.145203 
	C168.959961,270.877716 174.032272,283.978546 179.555420,298.243805 
	C185.065964,283.961670 190.070557,270.990845 195.075134,258.020020 
	C195.075134,258.020020 195.000259,257.993713 195.211090,257.934570 
	C195.740433,257.646545 195.814682,257.355408 195.644653,257.001984 
z"/>
<path fill="#FDFDFD" opacity="1.000000" stroke="none" 
	d="
M318.559448,257.854584 
	C316.184814,253.617050 314.134552,249.504898 311.839630,244.902054 
	C314.254944,242.167145 316.821655,238.902863 319.749084,236.002640 
	C343.413483,212.558136 367.123413,189.159271 390.918365,165.847488 
	C392.199707,164.592163 394.360840,163.595306 396.125763,163.573853 
	C410.876343,163.394379 425.630096,163.471878 440.010284,163.471878 
	C412.958282,190.536713 385.820068,217.687759 358.501709,245.019058 
	C361.722168,249.743652 364.409210,253.685669 367.372498,257.760742 
	C384.832947,282.960968 402.023682,308.023712 419.195190,333.099579 
	C422.162079,337.432129 425.047607,341.820404 428.452789,346.902466 
	C411.369904,346.902466 395.148987,346.959290 378.930573,346.784790 
	C377.747864,346.772095 376.231628,345.313171 375.461670,344.138947 
	C356.977997,315.949799 338.576263,287.706909 320.148804,259.480835 
	C319.793793,258.937073 319.308411,258.478363 318.559448,257.854584 
z"/>
<path fill="#FCFCFC" opacity="1.000000" stroke="none" 
	d="
M260.078003,258.180908 
	C270.153595,226.491730 280.089386,195.199585 290.184479,163.405731 
	C302.368683,163.405731 315.128113,163.405731 328.921204,163.405731 
	C319.381897,194.584442 309.975922,225.327362 300.593079,256.474823 
	C294.643768,276.209839 288.656342,295.535736 282.704895,314.872650 
	C279.437866,325.487701 276.231476,336.121429 273.015991,346.686768 
	C259.515778,346.686768 246.415726,346.686768 232.682800,346.686768 
	C241.848511,317.056671 250.893341,287.817291 260.078003,258.180908 
z"/>
<path fill="#080808" opacity="1.000000" stroke="none" 
	d="
M194.620728,257.956055 
	C190.070557,270.990845 185.065964,283.961670 179.555420,298.243805 
	C174.032272,283.978546 168.959961,270.877716 163.865128,257.393738 
	C166.901642,257.074768 169.961411,257.114868 173.019562,257.207916 
	C180.068909,257.422333 187.117447,257.662445 194.620728,257.956055 
z"/>
<path fill="#080808" opacity="1.000000" stroke="none" 
	d="
M195.549255,257.190308 
	C195.814682,257.355408 195.740433,257.646545 195.197235,257.971741 
	C195.167496,257.862366 195.327927,257.632538 195.549255,257.190308 
z"/>
</svg>